<?xml version="1.0" encoding="UTF-8" standalone="no"?>
<!DOCTYPE svg PUBLIC "-//W3C//DTD SVG 1.1//EN" "http://www.w3.org/Graphics/SVG/1.1/DTD/svg11.dtd">
<svg width="100%" height="100%" viewBox="0 0 304 304" version="1.1" xmlns="http://www.w3.org/2000/svg" xmlns:xlink="http://www.w3.org/1999/xlink" xml:space="preserve" xmlns:serif="http://www.serif.com/" style="fill-rule:evenodd;clip-rule:evenodd;stroke-linejoin:round;stroke-miterlimit:2;">
    <g transform="matrix(-0.766044,0.642788,-0.642788,-0.766044,668.203,483.81)">
        <g transform="matrix(3.09464e-16,-1,1.14431,3.47042e-16,-507.911,775.951)">
            <g transform="matrix(1,0,3.61289e-18,1.06508,-363.866,-92.7029)">
                <rect x="525.386" y="685.451" width="162.765" height="27.352" style="fill:rgb(0,174,239);"/>
            </g>
            <g transform="matrix(1,5.55112e-17,0,0.923993,-361.879,-1.21547)">
                <rect x="523.399" y="691.104" width="30.602" height="90.767" style="fill:rgb(0,174,239);"/>
            </g>
        </g>
        <g transform="matrix(-1.39404e-16,1.06107,-0.945577,-2.84722e-16,947.029,-110.333)">
            <rect x="567.023" y="679.294" width="82.8" height="41.934"/>
        </g>
        <g transform="matrix(1,2.48232e-16,-2.76973e-16,1.14431,-6.88409,-104.083)">
            <g transform="matrix(1,0,3.61289e-18,1.06508,-363.866,-92.7029)">
                <rect x="525.386" y="685.451" width="162.765" height="27.352"/>
            </g>
            <g transform="matrix(1,5.55112e-17,0,0.923993,-361.879,-1.21547)">
                <rect x="523.399" y="691.104" width="30.602" height="90.767"/>
            </g>
        </g>
        <g transform="matrix(-1.06107,-7.44325e-17,2.26822e-16,-0.945577,879.4,1350.86)">
            <rect x="567.023" y="679.294" width="82.8" height="41.934" style="fill:rgb(0,174,239);"/>
        </g>
        <g transform="matrix(-1.87e-16,1,-1.14431,-2.06904e-16,872.212,396.943)">
            <g transform="matrix(1,0,3.61289e-18,1.06508,-363.866,-92.7029)">
                <rect x="525.386" y="685.451" width="162.765" height="27.352" style="fill:rgb(0,174,239);"/>
            </g>
            <g transform="matrix(1,5.55112e-17,0,0.923993,-361.879,-1.21547)">
                <rect x="523.399" y="691.104" width="30.602" height="90.767" style="fill:rgb(0,174,239);"/>
            </g>
        </g>
        <g transform="matrix(9.46067e-18,-1.06107,0.945577,1.68922e-16,-582.728,1283.23)">
            <rect x="567.023" y="679.294" width="82.8" height="41.934"/>
        </g>
        <g transform="matrix(-1,-1.25767e-16,1.36835e-16,-1.14431,371.185,1276.98)">
            <g transform="matrix(1,0,3.61289e-18,1.06508,-363.866,-92.7029)">
                <rect x="525.386" y="685.451" width="162.765" height="27.352"/>
            </g>
            <g transform="matrix(1,5.55112e-17,0,0.923993,-361.879,-1.21547)">
                <rect x="523.399" y="691.104" width="30.602" height="90.767"/>
            </g>
        </g>
        <g transform="matrix(1.06107,-5.55112e-17,-1.11022e-16,0.945577,-515.099,-177.962)">
            <rect x="567.023" y="679.294" width="82.8" height="41.934" style="fill:rgb(0,174,239);"/>
        </g>
    </g>
</svg>
