<?xml version="1.0" encoding="UTF-8" standalone="no"?>
<!DOCTYPE svg PUBLIC "-//W3C//DTD SVG 1.1//EN" "http://www.w3.org/Graphics/SVG/1.1/DTD/svg11.dtd">
<svg width="100%" height="100%" viewBox="0 0 1067 304" version="1.1" xmlns="http://www.w3.org/2000/svg" xmlns:xlink="http://www.w3.org/1999/xlink" xml:space="preserve" xmlns:serif="http://www.serif.com/" style="fill-rule:evenodd;clip-rule:evenodd;stroke-linejoin:round;stroke-miterlimit:2;">
    <g>
        <g transform="matrix(-0.766044,0.642788,-0.642788,-0.766044,668.203,483.81)">
            <g transform="matrix(3.09464e-16,-1,1.14431,3.47042e-16,-507.911,775.951)">
                <g transform="matrix(1,0,3.61289e-18,1.06508,-363.866,-92.7029)">
                    <rect x="525.386" y="685.451" width="162.765" height="27.352" style="fill:rgb(0,174,239);"/>
                </g>
                <g transform="matrix(1,5.55112e-17,0,0.923993,-361.879,-1.21547)">
                    <rect x="523.399" y="691.104" width="30.602" height="90.767" style="fill:rgb(0,174,239);"/>
                </g>
            </g>
            <g transform="matrix(-1.39404e-16,1.06107,-0.945577,-2.84722e-16,947.029,-110.333)">
                <rect x="567.023" y="679.294" width="82.8" height="41.934"/>
            </g>
            <g transform="matrix(1,2.48232e-16,-2.76973e-16,1.14431,-6.88409,-104.083)">
                <g transform="matrix(1,0,3.61289e-18,1.06508,-363.866,-92.7029)">
                    <rect x="525.386" y="685.451" width="162.765" height="27.352"/>
                </g>
                <g transform="matrix(1,5.55112e-17,0,0.923993,-361.879,-1.21547)">
                    <rect x="523.399" y="691.104" width="30.602" height="90.767"/>
                </g>
            </g>
            <g transform="matrix(-1.06107,-7.44325e-17,2.26822e-16,-0.945577,879.4,1350.86)">
                <rect x="567.023" y="679.294" width="82.8" height="41.934" style="fill:rgb(0,174,239);"/>
            </g>
            <g transform="matrix(-1.87e-16,1,-1.14431,-2.06904e-16,872.212,396.943)">
                <g transform="matrix(1,0,3.61289e-18,1.06508,-363.866,-92.7029)">
                    <rect x="525.386" y="685.451" width="162.765" height="27.352" style="fill:rgb(0,174,239);"/>
                </g>
                <g transform="matrix(1,5.55112e-17,0,0.923993,-361.879,-1.21547)">
                    <rect x="523.399" y="691.104" width="30.602" height="90.767" style="fill:rgb(0,174,239);"/>
                </g>
            </g>
            <g transform="matrix(9.46067e-18,-1.06107,0.945577,1.68922e-16,-582.728,1283.23)">
                <rect x="567.023" y="679.294" width="82.8" height="41.934"/>
            </g>
            <g transform="matrix(-1,-1.25767e-16,1.36835e-16,-1.14431,371.185,1276.98)">
                <g transform="matrix(1,0,3.61289e-18,1.06508,-363.866,-92.7029)">
                    <rect x="525.386" y="685.451" width="162.765" height="27.352"/>
                </g>
                <g transform="matrix(1,5.55112e-17,0,0.923993,-361.879,-1.21547)">
                    <rect x="523.399" y="691.104" width="30.602" height="90.767"/>
                </g>
            </g>
            <g transform="matrix(1.06107,-5.55112e-17,-1.11022e-16,0.945577,-515.099,-177.962)">
                <rect x="567.023" y="679.294" width="82.8" height="41.934" style="fill:rgb(0,174,239);"/>
            </g>
        </g>
        <g transform="matrix(1,0,0,1,-18.7983,-18.8803)">
            <g transform="matrix(282.319,0,0,282.319,366.092,272.584)">
                <path d="M0.619,-0.109L0.619,-0L0.094,-0L0.094,-0.7L0.605,-0.7L0.605,-0.591L0.224,-0.591L0.224,-0.409L0.562,-0.409L0.562,-0.302L0.224,-0.302L0.224,-0.109L0.619,-0.109Z" style="fill-rule:nonzero;"/>
            </g>
            <g transform="matrix(282.319,0,0,282.319,552.422,272.584)">
                <path d="M0.422,-0L0.285,-0.185L0.147,-0L0.009,-0L0.217,-0.271L0.018,-0.534L0.157,-0.534L0.288,-0.359L0.419,-0.534L0.554,-0.534L0.354,-0.273L0.563,-0L0.422,-0Z" style="fill-rule:nonzero;"/>
            </g>
            <g transform="matrix(282.319,0,0,282.319,711.367,272.584)">
                <path d="M0.286,-0.54C0.365,-0.54 0.425,-0.521 0.467,-0.484C0.508,-0.446 0.529,-0.389 0.529,-0.313L0.529,-0L0.411,-0L0.411,-0.065C0.396,-0.042 0.374,-0.024 0.346,-0.012C0.317,0.001 0.283,0.007 0.243,0.007C0.203,0.007 0.168,0 0.138,-0.014C0.108,-0.027 0.085,-0.046 0.069,-0.071C0.052,-0.095 0.044,-0.122 0.044,-0.153C0.044,-0.201 0.062,-0.24 0.098,-0.269C0.133,-0.298 0.189,-0.312 0.266,-0.312L0.404,-0.312L0.404,-0.32C0.404,-0.357 0.393,-0.386 0.371,-0.406C0.348,-0.426 0.315,-0.436 0.271,-0.436C0.241,-0.436 0.212,-0.431 0.183,-0.422C0.154,-0.413 0.129,-0.4 0.109,-0.383L0.06,-0.474C0.088,-0.495 0.122,-0.512 0.161,-0.523C0.2,-0.534 0.242,-0.54 0.286,-0.54ZM0.269,-0.084C0.3,-0.084 0.328,-0.091 0.353,-0.106C0.377,-0.12 0.394,-0.14 0.404,-0.167L0.404,-0.229L0.275,-0.229C0.203,-0.229 0.167,-0.205 0.167,-0.158C0.167,-0.135 0.176,-0.117 0.194,-0.104C0.212,-0.091 0.237,-0.084 0.269,-0.084Z" style="fill-rule:nonzero;"/>
            </g>
            <g transform="matrix(282.319,0,0,282.319,882.735,272.584)">
                <rect x="0.082" y="-0.742" width="0.125" height="0.742" style="fill-rule:nonzero;"/>
            </g>
            <g transform="matrix(282.319,0,0,282.319,971.665,272.584)">
                <path d="M0.403,-0.029C0.388,-0.017 0.371,-0.008 0.35,-0.002C0.329,0.004 0.306,0.007 0.283,0.007C0.224,0.007 0.179,-0.008 0.147,-0.039C0.115,-0.07 0.099,-0.114 0.099,-0.173L0.099,-0.43L0.011,-0.43L0.011,-0.53L0.099,-0.53L0.099,-0.652L0.224,-0.652L0.224,-0.53L0.367,-0.53L0.367,-0.43L0.224,-0.43L0.224,-0.176C0.224,-0.15 0.23,-0.13 0.243,-0.117C0.256,-0.103 0.274,-0.096 0.298,-0.096C0.326,-0.096 0.349,-0.103 0.368,-0.118L0.403,-0.029Z" style="fill-rule:nonzero;"/>
            </g>
        </g>
    </g>
</svg>
